<svg width="32" height="32" viewBox="0 0 32 32" fill="none" xmlns="http://www.w3.org/2000/svg">
<path d="M31.5241 6.58267C30.4107 7.076 29.2147 7.40933 27.9574 7.56C29.2401 6.792 30.2241 5.57333 30.6881 4.12267C29.4881 4.83467 28.1587 5.352 26.7441 5.62933C25.6107 4.424 23.9974 3.66933 22.2107 3.66933C18.7814 3.66933 16.0001 6.45067 16.0001 9.88267C16.0001 10.368 16.0561 10.84 16.1601 11.296C10.9961 11.036 6.42139 8.56267 3.35739 4.80533C2.82406 5.72533 2.51739 6.792 2.51739 7.928C2.51739 10.0827 3.61472 11.9853 5.28006 13.0987C4.26139 13.0653 3.30406 12.7867 2.46672 12.3213V12.4013C2.46672 15.4107 4.60672 17.9213 7.44939 18.492C6.92672 18.6333 6.37872 18.708 5.81339 18.708C5.41339 18.708 5.02272 18.6707 4.64406 18.5987C5.43472 21.0653 7.72806 22.8627 10.4467 22.9107C8.32006 24.5773 5.64139 25.5707 2.73206 25.5707C2.23072 25.5707 1.73606 25.5413 1.24939 25.484C3.99872 27.248 7.26272 28.2747 10.7694 28.2747C22.1961 28.2747 28.4427 18.8107 28.4427 10.6027C28.4427 10.336 28.4361 10.0667 28.4241 9.8C29.6374 8.92267 30.6907 7.83067 31.5214 6.58667L31.5241 6.58267Z" fill="#1DA1F2"/>
</svg>
